<svg width="50" height="50" viewBox="0 0 50 50" fill="none" xmlns="http://www.w3.org/2000/svg">
<path d="M11.1924 15.9033C11.5188 15.8527 11.8209 15.7004 12.0557 15.468C12.2904 15.2357 12.4459 14.9352 12.5 14.6094C13.6807 7.43848 18.9092 3.125 25 3.125C30.6572 3.125 34.4355 6.81152 35.957 10.7168C36.0548 10.9671 36.2161 11.1876 36.425 11.3566C36.6339 11.5257 36.8832 11.6373 37.1484 11.6807C42.0312 12.4766 46.0938 15.7373 46.0938 21.4062C46.0938 27.207 41.3477 31.25 35.5469 31.25H12.6953C7.86133 31.25 3.90625 28.8379 3.90625 23.5156C3.90625 18.7822 7.68262 16.4629 11.1924 15.9033V15.9033Z" stroke="#3C3C3C" stroke-width="2.5" stroke-linejoin="round"/>
<path d="M37.5 37.5L31.25 46.875M14.0625 37.5L10.9375 42.1875L14.0625 37.5ZM21.875 37.5L15.625 46.875L21.875 37.5ZM29.6875 37.5L26.5625 42.1875L29.6875 37.5Z" stroke="#3C3C3C" stroke-width="2.5" stroke-linecap="round" stroke-linejoin="round"/>
</svg>
