<svg width="25" height="32" viewBox="0 0 25 32" fill="none" xmlns="http://www.w3.org/2000/svg">
<path d="M6.25 0H3.125C2.2962 0 1.50134 0.32924 0.915292 0.915291C0.329241 1.50134 0 2.2962 0 3.125V28.125C0 28.9538 0.329241 29.7487 0.915292 30.3347C1.50134 30.9208 2.2962 31.25 3.125 31.25H6.25C7.0788 31.25 7.87366 30.9208 8.45971 30.3347C9.04576 29.7487 9.375 28.9538 9.375 28.125V3.125C9.375 2.2962 9.04576 1.50134 8.45971 0.915291C7.87366 0.32924 7.0788 0 6.25 0V0ZM21.875 0H18.75C17.9212 0 17.1263 0.32924 16.5403 0.915291C15.9542 1.50134 15.625 2.2962 15.625 3.125V28.125C15.625 28.9538 15.9542 29.7487 16.5403 30.3347C17.1263 30.9208 17.9212 31.25 18.75 31.25H21.875C22.7038 31.25 23.4987 30.9208 24.0847 30.3347C24.6708 29.7487 25 28.9538 25 28.125V3.125C25 2.2962 24.6708 1.50134 24.0847 0.915291C23.4987 0.32924 22.7038 0 21.875 0V0Z" fill="black"/>
</svg>
